<svg xmlns="http://www.w3.org/2000/svg" version="1.1" xmlns:xlink="http://www.w3.org/1999/xlink" xmlns:svgjs="http://svgjs.dev/svgjs" viewBox="0 0 800 800"><defs><linearGradient x1="50%" y1="0%" x2="50%" y2="100%" id="ffflurry-grad" gradientTransform="rotate(270)"><stop stop-color="hsl(238, 82%, 13%)" stop-opacity="1" offset="0%"></stop><stop stop-color="hsl(1.4, 100%, 67%)" stop-opacity="1" offset="45%"></stop><stop stop-color="hsl(167, 52%, 78%)" stop-opacity="1" offset="100%"></stop></linearGradient></defs><rect width="100%" height="100%" fill="hsl(238, 82%, 13%)"></rect><g fill="url(#ffflurry-grad)"><rect width="286" height="3" x="209" y="214.5" rx="1.5" transform="rotate(45, 352, 216)" opacity="0.87"></rect><rect width="494" height="3" x="-206" y="309.5" rx="1.5" transform="rotate(45, 41, 311)" opacity="0.69"></rect><rect width="606" height="3" x="89" y="302.5" rx="1.5" transform="rotate(45, 392, 304)" opacity="0.65"></rect><rect width="240" height="3" x="638" y="767.5" rx="1.5" transform="rotate(45, 758, 769)" opacity="0.09"></rect><rect width="397" height="3" x="238.5" y="735.5" rx="1.5" transform="rotate(45, 437, 737)" opacity="0.89"></rect><rect width="244" height="3" x="124" y="441.5" rx="1.5" transform="rotate(45, 246, 443)" opacity="0.32"></rect><rect width="220" height="3" x="32" y="192.5" rx="1.5" transform="rotate(45, 142, 194)" opacity="0.26"></rect><rect width="610" height="3" x="-22" y="522.5" rx="1.5" transform="rotate(45, 283, 524)" opacity="0.33"></rect><rect width="390" height="3" x="455" y="462.5" rx="1.5" transform="rotate(45, 650, 464)" opacity="0.81"></rect><rect width="239" height="3" x="637.5" y="476.5" rx="1.5" transform="rotate(45, 757, 478)" opacity="0.92"></rect><rect width="157" height="3" x="555.5" y="124.5" rx="1.5" transform="rotate(45, 634, 126)" opacity="0.36"></rect><rect width="168" height="3" x="290" y="773.5" rx="1.5" transform="rotate(45, 374, 775)" opacity="0.49"></rect><rect width="214" height="3" x="303" y="636.5" rx="1.5" transform="rotate(45, 410, 638)" opacity="0.92"></rect><rect width="367" height="3" x="281.5" y="379.5" rx="1.5" transform="rotate(45, 465, 381)" opacity="0.58"></rect><rect width="639" height="3" x="34.5" y="426.5" rx="1.5" transform="rotate(45, 354, 428)" opacity="0.11"></rect><rect width="298" height="3" x="74" y="63.5" rx="1.5" transform="rotate(45, 223, 65)" opacity="0.45"></rect><rect width="370" height="3" x="-142" y="484.5" rx="1.5" transform="rotate(45, 43, 486)" opacity="0.52"></rect><rect width="521" height="3" x="-208.5" y="633.5" rx="1.5" transform="rotate(45, 52, 635)" opacity="0.25"></rect><rect width="316" height="3" x="598" y="292.5" rx="1.5" transform="rotate(45, 756, 294)" opacity="0.24"></rect><rect width="92" height="3" x="500" y="333.5" rx="1.5" transform="rotate(45, 546, 335)" opacity="0.20"></rect><rect width="152" height="3" x="75" y="658.5" rx="1.5" transform="rotate(45, 151, 660)" opacity="0.10"></rect><rect width="357" height="3" x="326.5" y="557.5" rx="1.5" transform="rotate(45, 505, 559)" opacity="0.18"></rect><rect width="55" height="3" x="624.5" y="189.5" rx="1.5" transform="rotate(45, 652, 191)" opacity="0.78"></rect><rect width="569" height="3" x="104.5" y="51.5" rx="1.5" transform="rotate(45, 389, 53)" opacity="0.45"></rect><rect width="434" height="3" x="476" y="728.5" rx="1.5" transform="rotate(45, 693, 730)" opacity="0.15"></rect><rect width="658" height="3" x="-116" y="335.5" rx="1.5" transform="rotate(45, 213, 337)" opacity="0.45"></rect><rect width="133" height="3" x="416.5" y="169.5" rx="1.5" transform="rotate(45, 483, 171)" opacity="0.99"></rect><rect width="127" height="3" x="678.5" y="61.5" rx="1.5" transform="rotate(45, 742, 63)" opacity="0.88"></rect><rect width="571" height="3" x="365.5" y="340.5" rx="1.5" transform="rotate(45, 651, 342)" opacity="0.53"></rect><rect width="370" height="3" x="292" y="242.5" rx="1.5" transform="rotate(45, 477, 244)" opacity="0.49"></rect><rect width="241" height="3" x="5.5" y="543.5" rx="1.5" transform="rotate(45, 126, 545)" opacity="0.86"></rect><rect width="141" height="3" x="-26.5" y="32.5" rx="1.5" transform="rotate(45, 44, 34)" opacity="0.17"></rect><rect width="459" height="3" x="469.5" y="645.5" rx="1.5" transform="rotate(45, 699, 647)" opacity="0.39"></rect><rect width="69" height="3" x="235.5" y="22.5" rx="1.5" transform="rotate(45, 270, 24)" opacity="0.14"></rect><rect width="160" height="3" x="436" y="718.5" rx="1.5" transform="rotate(45, 516, 720)" opacity="0.46"></rect><rect width="320" height="3" x="145" y="100.5" rx="1.5" transform="rotate(45, 305, 102)" opacity="0.27"></rect><rect width="162" height="3" x="520" y="680.5" rx="1.5" transform="rotate(45, 601, 682)" opacity="0.92"></rect><rect width="520" height="3" x="-60" y="737.5" rx="1.5" transform="rotate(45, 200, 739)" opacity="0.85"></rect><rect width="399" height="3" x="333.5" y="117.5" rx="1.5" transform="rotate(45, 533, 119)" opacity="0.58"></rect><rect width="382" height="3" x="70" y="771.5" rx="1.5" transform="rotate(45, 261, 773)" opacity="0.53"></rect><rect width="358" height="3" x="26" y="245.5" rx="1.5" transform="rotate(45, 205, 247)" opacity="0.60"></rect><rect width="246" height="3" x="100" y="582.5" rx="1.5" transform="rotate(45, 223, 584)" opacity="0.84"></rect><rect width="312" height="3" x="-50" y="761.5" rx="1.5" transform="rotate(45, 106, 763)" opacity="0.79"></rect><rect width="220" height="3" x="518" y="770.5" rx="1.5" transform="rotate(45, 628, 772)" opacity="0.16"></rect><rect width="161" height="3" x="197.5" y="179.5" rx="1.5" transform="rotate(45, 278, 181)" opacity="0.87"></rect><rect width="250" height="3" x="32" y="431.5" rx="1.5" transform="rotate(45, 157, 433)" opacity="0.70"></rect><rect width="340" height="3" x="-10" y="57.5" rx="1.5" transform="rotate(45, 160, 59)" opacity="0.14"></rect><rect width="585" height="3" x="446.5" y="386.5" rx="1.5" transform="rotate(45, 739, 388)" opacity="0.61"></rect><rect width="340" height="3" x="138" y="356.5" rx="1.5" transform="rotate(45, 308, 358)" opacity="0.78"></rect><rect width="198" height="3" x="-21" y="183.5" rx="1.5" transform="rotate(45, 78, 185)" opacity="0.13"></rect><rect width="328" height="3" x="-86" y="377.5" rx="1.5" transform="rotate(45, 78, 379)" opacity="0.71"></rect><rect width="501" height="3" x="137.5" y="535.5" rx="1.5" transform="rotate(45, 388, 537)" opacity="0.54"></rect><rect width="433" height="3" x="-182.5" y="733.5" rx="1.5" transform="rotate(45, 34, 735)" opacity="0.70"></rect><rect width="144" height="3" x="246" y="625.5" rx="1.5" transform="rotate(45, 318, 627)" opacity="0.46"></rect><rect width="360" height="3" x="588" y="691.5" rx="1.5" transform="rotate(45, 768, 693)" opacity="0.36"></rect><rect width="473" height="3" x="265.5" y="39.5" rx="1.5" transform="rotate(45, 502, 41)" opacity="0.95"></rect><rect width="352" height="3" x="598" y="597.5" rx="1.5" transform="rotate(45, 774, 599)" opacity="0.56"></rect><rect width="241" height="3" x="628.5" y="184.5" rx="1.5" transform="rotate(45, 749, 186)" opacity="0.46"></rect><rect width="73" height="3" x="115.5" y="134.5" rx="1.5" transform="rotate(45, 152, 136)" opacity="0.80"></rect><rect width="600" height="3" x="-179" y="273.5" rx="1.5" transform="rotate(45, 121, 275)" opacity="0.70"></rect><rect width="408" height="3" x="-175" y="228.5" rx="1.5" transform="rotate(45, 29, 230)" opacity="0.79"></rect><rect width="294" height="3" x="566" y="556.5" rx="1.5" transform="rotate(45, 713, 558)" opacity="0.55"></rect><rect width="297" height="3" x="475.5" y="40.5" rx="1.5" transform="rotate(45, 624, 42)" opacity="0.84"></rect><rect width="302" height="3" x="142" y="270.5" rx="1.5" transform="rotate(45, 293, 272)" opacity="0.18"></rect><rect width="42" height="3" x="460" y="301.5" rx="1.5" transform="rotate(45, 481, 303)" opacity="0.42"></rect><rect width="307" height="3" x="-87.5" y="95.5" rx="1.5" transform="rotate(45, 66, 97)" opacity="0.22"></rect><rect width="106" height="3" x="163" y="135.5" rx="1.5" transform="rotate(45, 216, 137)" opacity="0.23"></rect><rect width="439" height="3" x="29.5" y="667.5" rx="1.5" transform="rotate(45, 249, 669)" opacity="0.09"></rect><rect width="216" height="3" x="546" y="262.5" rx="1.5" transform="rotate(45, 654, 264)" opacity="0.72"></rect><rect width="124" height="3" x="547" y="567.5" rx="1.5" transform="rotate(45, 609, 569)" opacity="0.50"></rect><rect width="497" height="3" x="318.5" y="232.5" rx="1.5" transform="rotate(45, 567, 234)" opacity="0.81"></rect><rect width="449" height="3" x="104.5" y="720.5" rx="1.5" transform="rotate(45, 329, 722)" opacity="0.86"></rect><rect width="292" height="3" x="301" y="453.5" rx="1.5" transform="rotate(45, 447, 455)" opacity="0.90"></rect><rect width="171" height="3" x="-59.5" y="141.5" rx="1.5" transform="rotate(45, 26, 143)" opacity="0.14"></rect><rect width="397" height="3" x="207.5" y="158.5" rx="1.5" transform="rotate(45, 406, 160)" opacity="0.92"></rect><rect width="109" height="3" x="511.5" y="422.5" rx="1.5" transform="rotate(45, 566, 424)" opacity="0.80"></rect><rect width="42" height="3" x="103" y="24.5" rx="1.5" transform="rotate(45, 124, 26)" opacity="0.64"></rect></g></svg>