<svg viewBox="0 0 188 42" xmlns="http://www.w3.org/2000/svg" data-logo="logo">
        <g transform="translate(0, 1) rotate(0)" id="logogram"><path fill="#E9327C" d="M29.2236 33.1053L2.45805 14.6424C-0.254315 12.7715 0.667709 8.87601 4.04995 7.95996L32.4969 0.239132C33.0995 0.0216955 33.7452 -0.0488885 34.3806 0.0332432C35.0159 0.115375 35.6225 0.34785 36.1501 0.711378C36.6775 1.07491 37.1108 1.559 37.4136 2.12348C37.7165 2.68795 37.8805 3.31654 37.8918 3.95706L36.2059 30.1393C36.006 33.247 31.9359 34.9762 29.2236 33.1053Z"></path><path fill="#1DACE3" d="M20.7344 37.6632L4.966 6.82618C4.60555 6.12072 4.44694 5.32941 4.50764 4.53953C4.56835 3.74965 4.84603 2.99187 5.31004 2.34978C5.77407 1.70769 6.4064 1.20622 7.13732 0.900668C7.86824 0.595117 8.66934 0.497365 9.45229 0.618198L38.6751 5.12834C39.3478 5.23219 39.9864 5.49425 40.5382 5.89298C41.09 6.29172 41.5392 6.81572 41.8491 7.42191C42.1588 8.0281 42.3204 8.69917 42.3202 9.37994C42.3201 10.0607 42.1583 10.7317 41.8485 11.3378L28.3866 37.6647C28.0251 38.3681 27.4767 38.9583 26.8016 39.3703C26.1265 39.7823 25.351 40.0002 24.5601 40C23.7692 39.9999 22.9937 39.7817 22.3187 39.3695C21.6438 38.9571 21.0956 38.3668 20.7344 37.6632Z"></path><path fill="#001A49" d="M37.8201 4.9955L23.2528 2.74713L5.36731 7.60342L12.5063 21.5695L29.2235 33.1053C29.5924 33.357 29.998 33.5497 30.4261 33.6767L36.7758 21.2592L37.8201 4.9955Z"></path></g>
        <g transform="translate(49, 1)" id="logotype"><path d="M12.30 33L7.75 33L7.75 8.50L11.46 8.50L23.40 22.67Q23.82 23.16 24.22 23.67Q24.62 24.18 25.01 24.70L25.01 24.70Q24.90 23.93 24.87 22.87Q24.83 21.80 24.83 20.71L24.83 20.71L24.83 8.50L29.31 8.50L29.31 33L26.13 33L13.73 18.27Q13.32 17.77 12.91 17.27Q12.51 16.76 12.13 16.23L12.13 16.23Q12.23 17.00 12.27 18.07Q12.30 19.14 12.30 20.23L12.30 20.23L12.30 33ZM41.18 33.45L41.18 33.45Q38.38 33.45 36.24 32.16Q34.11 30.86 32.93 28.71Q31.76 26.56 31.76 23.93L31.76 23.93Q31.76 21.31 32.98 19.12Q34.21 16.93 36.33 15.64Q38.45 14.34 41.18 14.34L41.18 14.34Q43.91 14.34 45.99 15.64Q48.07 16.93 49.24 19.12Q50.42 21.31 50.42 23.93L50.42 23.93Q50.42 24.32 50.38 24.74Q50.34 25.16 50.28 25.61L50.28 25.61L36.66 25.61Q37.05 27.23 38.22 28.24Q39.39 29.25 41.18 29.25L41.18 29.25Q42.72 29.25 43.85 28.55Q44.99 27.86 45.62 26.80L45.62 26.80L49.30 29.57Q48.21 31.29 46.04 32.37Q43.87 33.45 41.18 33.45ZM41.11 18.41L41.11 18.41Q39.43 18.41 38.23 19.42Q37.05 20.43 36.66 22.08L36.66 22.08L45.66 22.08Q45.27 20.57 44.06 19.49Q42.86 18.41 41.11 18.41ZM61.27 33L58.68 33Q55.98 33 54.55 31.67Q53.11 30.34 53.11 27.36L53.11 27.36L53.11 18.82L50.55 18.82L50.55 14.80L53.11 14.80L53.11 11.12L57.84 10.63L57.84 14.80L61.69 14.80L61.69 18.82L57.84 18.82L57.84 27.12Q57.84 28.80 59.31 28.80L59.31 28.80L61.27 28.80L61.27 33ZM69.31 33.45L69.31 33.45Q64.73 33.45 61.76 30.27L61.76 30.27L64.94 27.36Q66.94 29.61 69.21 29.61L69.21 29.61Q70.44 29.61 71.08 29.06Q71.73 28.52 71.73 27.71L71.73 27.71Q71.73 27.23 71.50 26.88Q71.28 26.52 70.56 26.21Q69.84 25.89 68.41 25.58L68.41 25.58Q65.95 24.98 64.77 24.11Q63.58 23.23 63.19 22.15Q62.80 21.06 62.80 19.91L62.80 19.91Q62.80 17.53 64.61 15.94Q66.41 14.34 69.59 14.34L69.59 14.34Q71.80 14.34 73.38 15.01Q74.95 15.67 76.35 17.49L76.35 17.49L72.92 20.12Q72.25 19.07 71.43 18.61Q70.61 18.16 69.70 18.16L69.70 18.16Q68.72 18.16 68.07 18.54Q67.42 18.93 67.42 19.77L67.42 19.77Q67.42 20.23 67.84 20.66Q68.27 21.10 69.88 21.52L69.88 21.52Q72.53 22.18 73.94 23.08Q75.34 23.97 75.86 25.09Q76.39 26.21 76.39 27.57L76.39 27.57Q76.39 29.25 75.46 30.59Q74.53 31.91 72.94 32.69Q71.34 33.45 69.31 33.45ZM82.97 33L78.24 33L78.24 7.45L82.97 7.45L82.97 17.32Q84.44 14.38 88.46 14.38L88.46 14.38Q90.42 14.38 92.00 15.29Q93.57 16.20 94.48 17.88Q95.39 19.56 95.39 21.87L95.39 21.87L95.39 33L90.67 33L90.67 23.02Q90.67 20.64 89.58 19.58Q88.50 18.51 86.75 18.51L86.75 18.51Q85.24 18.51 84.10 19.58Q82.97 20.64 82.97 23.02L82.97 23.02L82.97 33ZM107.01 33.45L107.01 33.45Q104.21 33.45 102.01 32.16Q99.80 30.86 98.56 28.71Q97.32 26.56 97.32 23.93L97.32 23.93Q97.32 21.31 98.56 19.14Q99.80 16.97 102.01 15.67Q104.21 14.38 107.01 14.38L107.01 14.38Q109.85 14.38 112.03 15.67Q114.22 16.97 115.46 19.14Q116.71 21.31 116.71 23.93L116.71 23.93Q116.71 26.56 115.46 28.71Q114.22 30.86 112.03 32.16Q109.85 33.45 107.01 33.45ZM107.01 29.15L107.01 29.15Q108.52 29.15 109.64 28.43Q110.76 27.71 111.37 26.52Q111.98 25.34 111.98 23.93L111.98 23.93Q111.98 22.50 111.37 21.31Q110.76 20.12 109.64 19.40Q108.52 18.68 107.01 18.68L107.01 18.68Q105.51 18.68 104.39 19.40Q103.27 20.12 102.65 21.31Q102.04 22.50 102.04 23.93L102.04 23.93Q102.04 25.34 102.65 26.52Q103.27 27.71 104.39 28.43Q105.51 29.15 107.01 29.15ZM123.53 40L118.81 40L118.81 14.80L123.46 14.80L123.46 17.74Q124.20 16.23 125.54 15.32Q126.89 14.41 129.27 14.41L129.27 14.41Q131.16 14.41 132.79 15.17Q134.42 15.92 135.64 17.23Q136.87 18.54 137.57 20.28Q138.27 22.01 138.27 23.97L138.27 23.97Q138.27 26.59 137.06 28.75Q135.85 30.90 133.82 32.18Q131.79 33.45 129.27 33.45L129.27 33.45Q126.93 33.45 125.60 32.60Q124.27 31.74 123.53 30.30L123.53 30.30L123.53 40ZM128.50 29.18L128.50 29.18Q130.01 29.18 131.14 28.45Q132.28 27.71 132.91 26.51Q133.54 25.30 133.54 23.93L133.54 23.93Q133.54 22.50 132.91 21.31Q132.28 20.12 131.14 19.40Q130.01 18.68 128.50 18.68L128.50 18.68Q126.96 18.68 125.81 19.42Q124.65 20.16 124.02 21.34Q123.39 22.53 123.39 23.97L123.39 23.97Q123.39 25.37 124.02 26.56Q124.65 27.75 125.81 28.47Q126.96 29.18 128.50 29.18Z" fill="#000000"></path></g>
        
      </svg>