
      <svg data-logo="logo" xmlns="http://www.w3.org/2000/svg" viewBox="0 0 190 42">
        <g id="logogram" transform="translate(0, 1) rotate(0) "><path d="M21.3474 0.349945L46.7544 25.7266V39.3499H34.8978V30.624L16.4444 12.1924H12.611V39.3499H0.754395V0.349945H21.3474ZM34.8978 13.8842V0.349945H46.7544V13.8842H34.8978Z" fill="#212326"/></g>
        <g id="logotype" transform="translate(53, 1)"><path fill="#ffffff" d="M13.64 33L8.31 33L8.31 7.54L14.12 7.54L22.17 20.42Q22.78 21.41 23.41 22.58Q24.05 23.74 24.70 25.16Q25.36 26.57 26.01 28.35L26.01 28.35L25.48 28.35Q25.36 26.93 25.27 25.33Q25.17 23.72 25.11 22.25Q25.04 20.78 25.04 19.76L25.04 19.76L25.04 7.54L30.37 7.54L30.37 33L24.54 33L17.23 21.31Q16.42 19.99 15.74 18.76Q15.06 17.52 14.31 16.01Q13.57 14.51 12.55 12.44L12.55 12.44L13.21 12.44Q13.31 14.29 13.42 15.98Q13.52 17.67 13.58 19.05Q13.64 20.42 13.64 21.29L13.64 21.29L13.64 33ZM41.22 33.38L41.22 33.38Q38.30 33.38 36.18 32.18Q34.06 30.98 32.92 28.78Q31.79 26.57 31.79 23.55L31.79 23.55Q31.79 20.59 32.91 18.37Q34.04 16.15 36.11 14.90Q38.18 13.65 40.96 13.65L40.96 13.65Q42.84 13.65 44.47 14.25Q46.09 14.85 47.32 16.06Q48.55 17.26 49.24 19.07Q49.94 20.88 49.94 23.34L49.94 23.34L49.94 24.78L33.89 24.78L33.89 21.57L47.42 21.57L45.03 22.42Q45.03 20.93 44.58 19.83Q44.13 18.73 43.23 18.12Q42.33 17.52 41.00 17.52L41.00 17.52Q39.68 17.52 38.75 18.13Q37.82 18.75 37.34 19.80Q36.86 20.85 36.86 22.20L36.86 22.20L36.86 24.47Q36.86 26.13 37.42 27.26Q37.97 28.39 38.97 28.95Q39.97 29.51 41.31 29.51L41.31 29.51Q42.21 29.51 42.95 29.26Q43.68 29.00 44.20 28.50Q44.72 27.99 45.00 27.26L45.00 27.26L49.65 28.13Q49.18 29.70 48.04 30.89Q46.89 32.08 45.18 32.73Q43.46 33.38 41.22 33.38ZM49.32 13.89L60.65 13.89L60.65 17.81L49.32 17.81L49.32 13.89ZM51.95 27.86L51.95 9.35L57.08 9.35L57.08 27.41Q57.08 28.32 57.48 28.75Q57.88 29.19 58.82 29.19L58.82 29.19Q59.11 29.19 59.64 29.11Q60.17 29.04 60.44 28.97L60.44 28.97L61.18 32.81Q60.32 33.07 59.48 33.17Q58.63 33.27 57.86 33.27L57.86 33.27Q54.99 33.27 53.47 31.87Q51.95 30.47 51.95 27.86L51.95 27.86ZM69.29 33.38L69.29 33.38Q66.99 33.38 65.21 32.72Q63.43 32.06 62.30 30.80Q61.18 29.55 60.85 27.77L60.85 27.77L65.62 26.95Q66.00 28.28 66.94 28.95Q67.88 29.62 69.45 29.62L69.45 29.62Q70.90 29.62 71.76 29.06Q72.61 28.51 72.61 27.65L72.61 27.65Q72.61 26.90 72.00 26.42Q71.40 25.94 70.15 25.69L70.15 25.69L66.85 25.00Q64.08 24.44 62.72 23.08Q61.35 21.72 61.35 19.58L61.35 19.58Q61.35 17.74 62.36 16.41Q63.36 15.09 65.16 14.37Q66.95 13.65 69.38 13.65L69.38 13.65Q71.64 13.65 73.29 14.28Q74.95 14.90 75.98 16.05Q77.00 17.19 77.34 18.75L77.34 18.75L72.80 19.55Q72.51 18.58 71.68 17.95Q70.85 17.33 69.45 17.33L69.45 17.33Q68.18 17.33 67.33 17.86Q66.47 18.39 66.47 19.26L66.47 19.26Q66.47 19.99 67.03 20.49Q67.59 20.99 68.94 21.26L68.94 21.26L72.37 21.94Q75.14 22.51 76.49 23.78Q77.84 25.05 77.84 27.10L77.84 27.10Q77.84 28.98 76.75 30.39Q75.65 31.80 73.73 32.59Q71.81 33.38 69.29 33.38ZM84.16 21.94L84.16 21.94L84.16 33L79.03 33L79.03 7.54L84.06 7.54L84.06 18.66L83.65 18.66Q84.40 16.27 85.93 14.96Q87.46 13.65 89.89 13.65L89.89 13.65Q91.87 13.65 93.35 14.52Q94.82 15.38 95.64 17.00Q96.45 18.61 96.45 20.85L96.45 20.85L96.45 33L91.32 33L91.32 21.74Q91.32 19.96 90.41 18.95Q89.49 17.94 87.87 17.94L87.87 17.94Q86.79 17.94 85.95 18.41Q85.10 18.88 84.63 19.77Q84.16 20.66 84.16 21.94ZM107.09 33.38L107.09 33.38Q104.22 33.38 102.12 32.14Q100.02 30.90 98.88 28.68Q97.75 26.47 97.75 23.53L97.75 23.53Q97.75 20.56 98.88 18.35Q100.02 16.13 102.12 14.89Q104.22 13.65 107.09 13.65L107.09 13.65Q109.98 13.65 112.07 14.89Q114.17 16.13 115.30 18.35Q116.44 20.56 116.44 23.53L116.44 23.53Q116.44 26.47 115.30 28.68Q114.17 30.90 112.07 32.14Q109.98 33.38 107.09 33.38ZM107.09 29.34L107.09 29.34Q108.46 29.34 109.38 28.58Q110.31 27.82 110.77 26.50Q111.23 25.17 111.23 23.52L111.23 23.52Q111.23 21.82 110.77 20.51Q110.31 19.19 109.38 18.44Q108.46 17.69 107.09 17.69L107.09 17.69Q105.73 17.69 104.81 18.44Q103.90 19.19 103.44 20.51Q102.97 21.82 102.97 23.52L102.97 23.52Q102.97 25.17 103.44 26.50Q103.90 27.82 104.81 28.58Q105.73 29.34 107.09 29.34ZM122.87 40.14L117.74 40.14L117.74 13.89L122.78 13.89L122.78 17.11L123.02 17.11Q123.38 16.35 124.04 15.55Q124.69 14.75 125.77 14.20Q126.85 13.65 128.47 13.65L128.47 13.65Q130.59 13.65 132.35 14.75Q134.11 15.84 135.16 18.03Q136.21 20.22 136.21 23.48L136.21 23.48Q136.21 26.66 135.19 28.86Q134.16 31.05 132.40 32.19Q130.64 33.32 128.44 33.32L128.44 33.32Q126.88 33.32 125.80 32.79Q124.73 32.27 124.05 31.49Q123.38 30.71 123.02 29.94L123.02 29.94L122.87 29.94L122.87 40.14ZM126.86 29.21L126.86 29.21Q128.20 29.21 129.11 28.47Q130.03 27.74 130.50 26.44Q130.97 25.14 130.97 23.46L130.97 23.46Q130.97 21.79 130.50 20.51Q130.03 19.23 129.12 18.49Q128.21 17.76 126.86 17.76L126.86 17.76Q125.55 17.76 124.63 18.47Q123.70 19.17 123.22 20.45Q122.75 21.72 122.75 23.46L122.75 23.46Q122.75 25.19 123.23 26.48Q123.72 27.77 124.64 28.49Q125.57 29.21 126.86 29.21Z"/></g>
        
      </svg>
    